<?xml version="1.0" standalone="no"?>
<!DOCTYPE svg PUBLIC "-//W3C//DTD SVG 20010904//EN"
 "http://www.w3.org/TR/2001/REC-SVG-20010904/DTD/svg10.dtd">
<svg version="1.0" xmlns="http://www.w3.org/2000/svg"
 width="202.000000pt" height="78.000000pt" viewBox="0 0 202.000000 78.000000"
 preserveAspectRatio="xMidYMid meet">

<g transform="translate(0.000000,78.000000) scale(0.100000,-0.100000)"
fill="#000000" stroke="none">
<path d="M113 654 c-8 -23 4 -433 14 -469 6 -20 17 -31 32 -33 43 -7 49 2 41
60 -5 29 -11 89 -15 133 l-6 81 45 12 c53 14 121 71 131 109 17 71 -54 123
-168 123 -52 0 -69 -4 -74 -16z m145 -24 c27 -17 32 -26 32 -58 0 -42 -33 -82
-82 -101 l-28 -11 0 95 c0 92 1 95 23 95 12 0 37 -9 55 -20z"/>
<path d="M455 638 c-5 -19 -19 -300 -20 -403 0 -90 0 -90 26 -93 16 -2 29 3
32 11 3 8 9 123 13 256 l7 241 -27 0 c-15 0 -28 -6 -31 -12z"/>
<path d="M1012 454 c-12 -8 -31 -33 -42 -55 -18 -34 -23 -38 -39 -27 -34 21
-51 -5 -51 -76 0 -75 16 -111 50 -111 24 0 25 3 31 75 5 75 23 124 54 150 28
23 43 -11 50 -118 8 -128 11 -142 34 -142 18 0 19 7 15 103 -9 195 -36 248
-102 201z"/>
<path d="M1322 454 c-12 -8 -31 -33 -42 -55 -18 -34 -23 -38 -39 -27 -15 9
-23 9 -36 -2 -14 -12 -17 -27 -13 -87 5 -78 19 -106 52 -101 19 3 22 12 27 78
6 76 24 125 54 150 31 25 45 -7 51 -115 7 -131 10 -145 34 -145 18 0 19 6 14
102 -10 197 -36 249 -102 202z"/>
<path d="M1561 439 c-67 -63 -78 -232 -18 -274 12 -8 41 -15 66 -15 40 0 49 5
88 45 24 25 43 50 43 55 0 23 -36 7 -67 -30 -38 -44 -75 -53 -93 -21 -19 37
-12 66 19 78 34 12 71 76 71 121 0 57 -65 82 -109 41z m59 -46 c0 -50 -16 -94
-37 -101 -18 -5 -17 69 1 113 21 49 36 44 36 -12z"/>
<path d="M1803 413 c-26 -9 -12 -208 16 -236 22 -22 46 7 52 64 6 58 20 91 51
126 11 12 18 28 16 35 -3 9 -19 -1 -47 -28 l-41 -42 -6 38 c-6 39 -18 51 -41
43z"/>
<path d="M644 396 c-46 -21 -69 -84 -54 -148 12 -48 47 -88 77 -88 8 0 27 13
43 28 l28 29 11 -24 c11 -23 45 -31 56 -13 3 5 -1 35 -8 67 -8 32 -14 71 -13
87 2 53 -79 89 -140 62z m98 -33 c17 -16 17 -17 -3 -27 -14 -7 -28 -32 -40
-70 -23 -77 -33 -85 -50 -44 -17 40 -17 105 0 136 14 27 65 30 93 5z"/>
</g>
</svg>
