<?xml version="1.0"?>
<svg version="1.1" xmlns="http://www.w3.org/2000/svg" width="200" height="200" style="border: 2px #aaa"><path fill="#" d="M17.0849609375,91.66015625q0-1.6064453125,0.08544921875-3.1787109375t0.29052734375-3.1103515625q0.13671875-0.7861328125,1.21337890625-1.1279296875t1.79443359375-0.341796875l0.8203125,0.068359375q0.9912109375,0.13671875,1.99951171875-0.13671875t1.99951171875-0.2734375q2.32421875,0,5.1953125,0.5126953125t5.38330078125,1.7431640625t4.22119140625,3.22998046875t1.708984375,4.93896484375t-1.77734375,5.48583984375t-4.4775390625,4.4775390625t-5.810546875,3.02490234375t-5.7080078125,1.09375q0.2734375,6.5966796875,0.76904296875,13.0908203125t1.69189453125,12.98828125l0.068359375,0.4443359375q0,0.478515625-0.42724609375,0.7861328125t-1.00830078125,0.49560546875t-1.17919921875,0.25634765625t-0.97412109375,0.068359375q-0.8544921875,0-2.06787109375-0.32470703125t-1.48681640625-1.28173828125q-0.7861328125-3.0078125-1.23046875-6.61376953125t-0.6494140625-7.53662109375t-0.29052734375-7.91259765625t-0.08544921875-7.77587890625l0-7.6904296875q0-1.2646484375-0.0341796875-2.6318359375t-0.0341796875-2.7685546875z M23.544921875,86.123046875q0,4.6826171875,0.1025390625,9.34814453125t0.2392578125,9.34814453125q2.0166015625-0.41015625,4.11865234375-1.45263671875t3.7939453125-2.47802734375t2.734375-3.26416015625t1.04248046875-3.84521484375q0-1.8115234375-0.90576171875-3.2470703125t-2.34130859375-2.4609375q-1.4013671875-0.9912109375-3.1787109375-1.5380859375q-1.572265625-0.478515625-3.076171875-0.478515625l-0.3759765625,0z M48.792431640625,134.384765625q0-0.9912109375,0.08544921875-2.0849609375t0.15380859375-2.05078125l0.205078125-5.126953125q0.341796875-6.15234375,0.83740234375-12.099609375t0.83740234375-12.03125q0.205078125-3.349609375,0.3076171875-6.57958984375t0.3076171875-6.57958984375q-0.13671875-0.2734375-0.13671875-0.3759765625q0-0.478515625,0.35888671875-0.751953125t0.83740234375-0.46142578125t1.00830078125-0.25634765625t0.80322265625-0.068359375l0.7861328125,0q1.0595703125,0.13671875,1.5380859375,0.66650390625t0.615234375,1.2646484375t0.068359375,1.572265625t-0.068359375,1.55517578125q0,4.9560546875-0.2392578125,10.10009765625t-0.546875,10.322265625t-0.56396484375,10.3564453125t-0.25634765625,10.23681640625l0,2.392578125q0,1.6064453125-0.90576171875,2.119140625t-2.51220703125,0.5126953125q-1.4013671875,0-2.4609375-0.615234375t-1.0595703125-2.0166015625z M64.46962890625,122.2509765625q0-2.32421875,0.63232421875-4.4775390625t1.89697265625-3.84521484375t3.16162109375-2.7001953125t4.39208984375-1.00830078125q1.5380859375,0,3.40087890625,0.46142578125t3.50341796875,1.3671875t2.734375,2.30712890625t1.09375,3.212890625q0,0.8544921875-0.29052734375,1.298828125t-1.17919921875,0.4443359375l-0.3759765625-0.068359375q0.9912109375,2.666015625,1.708984375,5.46875t1.4013671875,5.60546875q0.2734375,0.546875,0.41015625,0.97412109375t0.13671875,0.83740234375q0,0.546875-0.3076171875,0.90576171875t-0.80322265625,0.52978515625t-1.025390625,0.2392578125t-0.93994140625,0.068359375q-1.4697265625,0-2.20458984375-0.5126953125t-1.0595703125-1.4013671875t-0.39306640625-1.99951171875t-0.2734375-2.23876953125q-0.41015625,1.3330078125-1.07666015625,2.59765625t-1.572265625,2.27294921875t-2.13623046875,1.6064453125t-2.7685546875,0.59814453125q-2.255859375,0-3.7939453125-1.298828125t-2.47802734375-3.19580078125t-1.3671875-4.05029296875t-0.42724609375-3.9990234375z M69.32314453125,121.7724609375q0,1.2646484375,0.1708984375,2.666015625t0.56396484375,2.7685546875t1.00830078125,2.58056640625t1.5380859375,2.13623046875q1.6748046875-1.8115234375,2.47802734375-4.4091796875t1.435546875-5.00732421875t1.435546875-4.1357421875t2.47802734375-1.72607421875q1.0595703125,0,1.77734375,0.3759765625q-0.341796875-0.8544921875-1.1279296875-1.65771484375t-1.76025390625-1.4697265625t-2.0166015625-1.09375t-1.96533203125-0.42724609375q-0.2734375,0-0.63232421875,0.08544921875t-0.56396484375,0.01708984375q-1.4013671875,0.41015625-2.30712890625,1.41845703125t-1.4697265625,2.37548828125t-0.80322265625,2.802734375t-0.2392578125,2.7001953125z M94.126318359375,122.421875l0-0.9912109375q0-1.23046875,0.068359375-2.32421875q0.068359375-1.5380859375,0.068359375-2.529296875q0-0.546875,0.068359375-1.24755859375t0.341796875-1.11083984375q0.341796875-0.341796875,0.80322265625-0.70068359375t1.00830078125-0.35888671875q1.7431640625,0,2.734375,0.39306640625t1.0595703125,1.62353515625l0.13671875,1.0595703125q0.615234375-1.4697265625,1.640625-3.64013671875t2.37548828125-4.1357421875t3.0419921875-3.349609375t3.57177734375-1.38427734375q1.7431640625,0,2.87109375,1.640625t1.79443359375,4.18701171875t0.93994140625,5.673828125t0.3759765625,6.13525390625t0.13671875,5.48583984375t0.2392578125,3.74267578125q0.13671875,1.0595703125,0.46142578125,2.23876953125t0.32470703125,2.17041015625q0,0.2734375-0.39306640625,0.52978515625t-0.83740234375,0.42724609375t-0.90576171875,0.2734375t-0.66650390625,0.1025390625q-1.3330078125,0-1.89697265625-1.99951171875t-0.70068359375-5.00732421875t-0.13671875-6.51123046875t-0.2392578125-6.51123046875t-0.97412109375-5.00732421875t-2.34130859375-2.06787109375q-1.4697265625,0-3.0419921875,1.89697265625t-2.7001953125,5.04150390625q-1.09375,3.14453125-1.50390625,7.1435546875q-0.13671875,1.2646484375-0.13671875,2.529296875q0,2.7685546875,0.5810546875,5.537109375q0.068359375,0.478515625-0.39306640625,0.7177734375t-1.14501953125,0.3759765625t-1.38427734375,0.1708984375t-1.07666015625,0.0341796875q-1.3330078125,0-2.13623046875-0.93994140625t-1.24755859375-2.40966796875t-0.59814453125-3.29833984375t-0.18798828125-3.60595703125z M125.2185546875,122.421875l0-0.9912109375q0-1.23046875,0.068359375-2.32421875q0.068359375-1.5380859375,0.068359375-2.529296875q0-0.546875,0.068359375-1.24755859375t0.341796875-1.11083984375q0.341796875-0.341796875,0.80322265625-0.70068359375t1.00830078125-0.35888671875q1.7431640625,0,2.734375,0.39306640625t1.0595703125,1.62353515625l0.13671875,1.0595703125q0.615234375-1.4697265625,1.640625-3.64013671875t2.37548828125-4.1357421875t3.0419921875-3.349609375t3.57177734375-1.38427734375q1.7431640625,0,2.87109375,1.640625t1.79443359375,4.18701171875t0.93994140625,5.673828125t0.3759765625,6.13525390625t0.13671875,5.48583984375t0.2392578125,3.74267578125q0.13671875,1.0595703125,0.46142578125,2.23876953125t0.32470703125,2.17041015625q0,0.2734375-0.39306640625,0.52978515625t-0.83740234375,0.42724609375t-0.90576171875,0.2734375t-0.66650390625,0.1025390625q-1.3330078125,0-1.89697265625-1.99951171875t-0.70068359375-5.00732421875t-0.13671875-6.51123046875t-0.2392578125-6.51123046875t-0.97412109375-5.00732421875t-2.34130859375-2.06787109375q-1.4697265625,0-3.0419921875,1.89697265625t-2.7001953125,5.04150390625q-1.09375,3.14453125-1.50390625,7.1435546875q-0.13671875,1.2646484375-0.13671875,2.529296875q0,2.7685546875,0.5810546875,5.537109375q0.068359375,0.478515625-0.39306640625,0.7177734375t-1.14501953125,0.3759765625t-1.38427734375,0.1708984375t-1.07666015625,0.0341796875q-1.3330078125,0-2.13623046875-0.93994140625t-1.24755859375-2.40966796875t-0.59814453125-3.29833984375t-0.18798828125-3.60595703125z M156.27661132812,123.65234375q0-2.392578125,0.52978515625-5.6396484375t1.79443359375-6.15234375t3.33251953125-4.93896484375t5.21240234375-2.03369140625q2.939453125,0,4.4091796875,1.69189453125t1.4697265625,4.56298828125q0,1.8798828125-0.70068359375,4.11865234375t-1.99951171875,4.23828125t-3.076171875,3.33251953125t-3.96484375,1.3330078125l-0.888671875-0.068359375q0,0.9228515625,0.2734375,2.47802734375t0.80322265625,3.09326171875t1.3671875,2.7001953125t2.03369140625,1.162109375q1.7431640625,0,3.349609375-1.4013671875t3.0419921875-3.1103515625t2.666015625-3.1103515625t2.255859375-1.4013671875q0.546875,0,1.1279296875,0.1708984375t0.6494140625,0.95703125q0,0.478515625-0.25634765625,0.7861328125t-0.46142578125,0.68359375q-1.0595703125,1.8115234375-2.30712890625,3.4521484375t-2.81982421875,2.9736328125t-3.43505859375,2.10205078125t-4.11865234375,0.76904296875q-2.939453125,0-4.8876953125-1.04248046875t-3.14453125-2.802734375t-1.72607421875-4.0673828125t-0.52978515625-4.83642578125z M162.39477539062,121.0546875l0.95703125,0.8544921875q0.68359375,0.615234375,1.3671875,0.2734375t1.23046875-1.24755859375t1.00830078125-2.23876953125t0.8203125-2.734375t0.52978515625-2.734375t0.1708984375-2.2216796875l0-1.162109375t-0.1025390625-1.23046875t-0.35888671875-0.97412109375t-0.80322265625-0.49560546875q-0.1708984375-0.0341796875-0.3076171875-0.0341796875q-1.162109375,0-1.982421875,1.4697265625q-0.888671875,1.640625-1.435546875,3.98193359375t-0.7861328125,4.80224609375t-0.3076171875,3.69140625z M184.83955078125,112.6806640625q0-1.4013671875,0.49560546875-2.3583984375t2.10205078125-0.95703125q0.615234375,0,1.5380859375,0.18798828125t1.0595703125,0.93994140625q0.341796875,2.0166015625,0.3759765625,4.375t0.2392578125,4.443359375q0.7861328125-1.5380859375,2.0166015625-3.3154296875t2.802734375-3.28125t3.41796875-2.4951171875t3.759765625-0.9912109375q0.13671875,0,0.5126953125,0.1025390625t0.70068359375,0.29052734375t0.39306640625,0.42724609375t-0.3759765625,0.4443359375q-0.13671875,0.41015625-0.5810546875,0.49560546875t-0.7861328125,0.08544921875q-0.205078125,0-0.6494140625-0.1708984375q-2.529296875,1.3330078125-4.306640625,3.623046875t-2.9052734375,5.07568359375t-1.640625,5.87890625t-0.5126953125,6.03271484375q0,1.4697265625-0.66650390625,1.77734375t-2.13623046875,0.3076171875q-0.7861328125,0-1.65771484375-0.1708984375t-1.21337890625-1.09375q-0.615234375-1.9482421875-1.00830078125-4.4775390625t-0.59814453125-5.21240234375t-0.29052734375-5.28076171875t-0.08544921875-4.6826171875z"/><path fill="#" d=""/></svg>
